<mxfile host="app.diagrams.net" agent="Mozilla/5.0 (X11; Linux x86_64) AppleWebKit/537.36 (KHTML, like Gecko) Chrome/133.0.0.0 Safari/537.36" version="26.0.13" pages="2">
  <diagram id="NF0vHwsnZXX5Q3ajqGA5" name="HMS -use case">
    <mxGraphModel dx="1793" dy="993" grid="1" gridSize="10" guides="1" tooltips="1" connect="1" arrows="1" fold="1" page="1" pageScale="1" pageWidth="850" pageHeight="1100" math="0" shadow="0">
      <root>
        <mxCell id="0" />
        <mxCell id="1" parent="0" />
        <mxCell id="HV_NSQ4wkKDu4KjjrFMd-1" value="" style="ellipse;whiteSpace=wrap;html=1;fillColor=#dae8fc;strokeColor=#6c8ebf;" vertex="1" parent="1">
          <mxGeometry x="340" y="90" width="120" height="70" as="geometry" />
        </mxCell>
        <mxCell id="HV_NSQ4wkKDu4KjjrFMd-3" value="HMS System" style="text;html=1;align=center;verticalAlign=middle;whiteSpace=wrap;rounded=0;" vertex="1" parent="1">
          <mxGeometry x="340" y="30" width="120" height="30" as="geometry" />
        </mxCell>
        <mxCell id="HV_NSQ4wkKDu4KjjrFMd-8" value="Recruiter" style="shape=umlActor;html=1;verticalLabelPosition=bottom;verticalAlign=top;align=center;" vertex="1" parent="1">
          <mxGeometry x="120" y="270" width="30" height="60" as="geometry" />
        </mxCell>
        <mxCell id="HV_NSQ4wkKDu4KjjrFMd-11" value="Admin" style="shape=umlActor;html=1;verticalLabelPosition=bottom;verticalAlign=top;align=center;" vertex="1" parent="1">
          <mxGeometry x="120" y="431" width="30" height="60" as="geometry" />
        </mxCell>
        <mxCell id="HV_NSQ4wkKDu4KjjrFMd-14" value="Job Seeker" style="shape=umlActor;html=1;verticalLabelPosition=bottom;verticalAlign=top;align=center;" vertex="1" parent="1">
          <mxGeometry x="120" y="580" width="30" height="60" as="geometry" />
        </mxCell>
      </root>
    </mxGraphModel>
  </diagram>
  <diagram name="Page-1" id="3F92gOICFbMlfeKC0Yie">
    <mxGraphModel dx="1434" dy="1894" grid="1" gridSize="10" guides="1" tooltips="1" connect="1" arrows="1" fold="1" page="1" pageScale="1" pageWidth="850" pageHeight="1100" math="0" shadow="0">
      <root>
        <mxCell id="0" />
        <mxCell id="1" parent="0" />
        <mxCell id="SASfzLpLXWs9muruOMGt-29" value="" style="group" vertex="1" connectable="0" parent="1">
          <mxGeometry x="200" y="-710" width="415" height="280" as="geometry" />
        </mxCell>
        <mxCell id="SASfzLpLXWs9muruOMGt-14" style="edgeStyle=orthogonalEdgeStyle;rounded=0;orthogonalLoop=1;jettySize=auto;html=1;entryX=0;entryY=0.5;entryDx=0;entryDy=0;" edge="1" parent="SASfzLpLXWs9muruOMGt-29" source="SASfzLpLXWs9muruOMGt-9" target="SASfzLpLXWs9muruOMGt-13">
          <mxGeometry relative="1" as="geometry" />
        </mxCell>
        <mxCell id="SASfzLpLXWs9muruOMGt-9" value="devices" style="sketch=0;outlineConnect=0;gradientColor=none;fontColor=#545B64;strokeColor=none;fillColor=#879196;dashed=0;verticalLabelPosition=bottom;verticalAlign=top;align=center;html=1;fontSize=12;fontStyle=0;aspect=fixed;shape=mxgraph.aws4.illustration_devices;pointerEvents=1" vertex="1" parent="SASfzLpLXWs9muruOMGt-29">
          <mxGeometry y="134" width="100" height="73" as="geometry" />
        </mxCell>
        <mxCell id="SASfzLpLXWs9muruOMGt-11" style="edgeStyle=orthogonalEdgeStyle;rounded=0;orthogonalLoop=1;jettySize=auto;html=1;" edge="1" parent="SASfzLpLXWs9muruOMGt-29" source="SASfzLpLXWs9muruOMGt-10" target="SASfzLpLXWs9muruOMGt-9">
          <mxGeometry relative="1" as="geometry" />
        </mxCell>
        <mxCell id="SASfzLpLXWs9muruOMGt-13" value="" style="whiteSpace=wrap;html=1;aspect=fixed;fillColor=none;dashed=1;" vertex="1" parent="SASfzLpLXWs9muruOMGt-29">
          <mxGeometry x="175" y="40" width="240" height="240" as="geometry" />
        </mxCell>
        <mxCell id="SASfzLpLXWs9muruOMGt-10" value="" style="sketch=0;verticalLabelPosition=bottom;sketch=0;aspect=fixed;html=1;verticalAlign=top;strokeColor=none;fillColor=#000000;align=center;outlineConnect=0;pointerEvents=1;shape=mxgraph.citrix2.users;" vertex="1" parent="SASfzLpLXWs9muruOMGt-29">
          <mxGeometry x="18.269999999999982" y="30" width="63.47" height="33.56" as="geometry" />
        </mxCell>
        <mxCell id="SASfzLpLXWs9muruOMGt-16" value="" style="group" vertex="1" connectable="0" parent="SASfzLpLXWs9muruOMGt-29">
          <mxGeometry x="310" y="69" width="85.35" height="101" as="geometry" />
        </mxCell>
        <mxCell id="SASfzLpLXWs9muruOMGt-3" value="" style="aspect=fixed;sketch=0;html=1;dashed=0;whitespace=wrap;verticalLabelPosition=bottom;verticalAlign=top;fillColor=#2875E2;strokeColor=#ffffff;points=[[0.005,0.63,0],[0.1,0.2,0],[0.9,0.2,0],[0.5,0,0],[0.995,0.63,0],[0.72,0.99,0],[0.5,1,0],[0.28,0.99,0]];shape=mxgraph.kubernetes.icon2;prIcon=api" vertex="1" parent="SASfzLpLXWs9muruOMGt-16">
          <mxGeometry x="7.112499999999999" width="71.125" height="68.28" as="geometry" />
        </mxCell>
        <mxCell id="SASfzLpLXWs9muruOMGt-15" value="&lt;font&gt;HMS API&lt;/font&gt;" style="text;html=1;align=center;verticalAlign=middle;whiteSpace=wrap;rounded=0;strokeWidth=1;" vertex="1" parent="SASfzLpLXWs9muruOMGt-16">
          <mxGeometry y="58.32394366197183" width="85.35" height="42.676056338028175" as="geometry" />
        </mxCell>
        <mxCell id="SASfzLpLXWs9muruOMGt-26" value="" style="group" vertex="1" connectable="0" parent="SASfzLpLXWs9muruOMGt-29">
          <mxGeometry x="210" y="123.54999999999995" width="72.89999999999998" height="96.4500000000001" as="geometry" />
        </mxCell>
        <mxCell id="SASfzLpLXWs9muruOMGt-17" value="" style="shadow=0;dashed=0;html=1;strokeColor=none;fillColor=#4495D1;labelPosition=center;verticalLabelPosition=bottom;verticalAlign=top;align=center;outlineConnect=0;shape=mxgraph.veeam.2d.web_ui;" vertex="1" parent="SASfzLpLXWs9muruOMGt-26">
          <mxGeometry width="72.9" height="72.9" as="geometry" />
        </mxCell>
        <mxCell id="SASfzLpLXWs9muruOMGt-23" value="HMS UI" style="text;whiteSpace=wrap;html=1;" vertex="1" parent="SASfzLpLXWs9muruOMGt-26">
          <mxGeometry x="11.449999999999989" y="72.90000000000009" width="50" height="23.55" as="geometry" />
        </mxCell>
        <mxCell id="SASfzLpLXWs9muruOMGt-25" value="" style="edgeStyle=orthogonalEdgeStyle;rounded=0;orthogonalLoop=1;jettySize=auto;html=1;" edge="1" parent="SASfzLpLXWs9muruOMGt-26" source="SASfzLpLXWs9muruOMGt-23" target="SASfzLpLXWs9muruOMGt-17">
          <mxGeometry relative="1" as="geometry" />
        </mxCell>
        <mxCell id="SASfzLpLXWs9muruOMGt-27" value="" style="group" vertex="1" connectable="0" parent="SASfzLpLXWs9muruOMGt-29">
          <mxGeometry x="322.5" y="186.44999999999993" width="60" height="83.55000000000007" as="geometry" />
        </mxCell>
        <mxCell id="SASfzLpLXWs9muruOMGt-8" value="" style="strokeWidth=2;html=1;shape=mxgraph.flowchart.database;whiteSpace=wrap;" vertex="1" parent="SASfzLpLXWs9muruOMGt-27">
          <mxGeometry width="60" height="60" as="geometry" />
        </mxCell>
        <mxCell id="SASfzLpLXWs9muruOMGt-24" value="HMS DB" style="text;whiteSpace=wrap;html=1;" vertex="1" parent="SASfzLpLXWs9muruOMGt-27">
          <mxGeometry x="2.5" y="60.00000000000006" width="55" height="23.55" as="geometry" />
        </mxCell>
        <mxCell id="SASfzLpLXWs9muruOMGt-28" value="Users" style="text;html=1;align=center;verticalAlign=middle;whiteSpace=wrap;rounded=0;" vertex="1" parent="SASfzLpLXWs9muruOMGt-29">
          <mxGeometry x="21.74000000000001" width="60" height="30" as="geometry" />
        </mxCell>
      </root>
    </mxGraphModel>
  </diagram>
</mxfile>
